<?xml version="1.0" encoding="utf-8"?>
<svg xmlns="http://www.w3.org/2000/svg" xmlns:xlink="http://www.w3.org/1999/xlink" style="margin: auto; background: none; display: block; shape-rendering: auto;" width="130px" height="130px" viewBox="0 0 100 100" preserveAspectRatio="xMidYMid">
<g transform="rotate(0 50 50)">
  <rect x="49.5" y="22.5" rx="0.5" ry="6.5" width="1" height="13" fill="#ee6123">
    <animate attributeName="opacity" values="1;0" keyTimes="0;1" dur="1s" begin="-0.9583333333333334s" repeatCount="indefinite"></animate>
  </rect>
</g><g transform="rotate(15 50 50)">
  <rect x="49.5" y="22.5" rx="0.5" ry="6.5" width="1" height="13" fill="#ee6123">
    <animate attributeName="opacity" values="1;0" keyTimes="0;1" dur="1s" begin="-0.9166666666666666s" repeatCount="indefinite"></animate>
  </rect>
</g><g transform="rotate(30 50 50)">
  <rect x="49.5" y="22.5" rx="0.5" ry="6.5" width="1" height="13" fill="#ee6123">
    <animate attributeName="opacity" values="1;0" keyTimes="0;1" dur="1s" begin="-0.875s" repeatCount="indefinite"></animate>
  </rect>
</g><g transform="rotate(45 50 50)">
  <rect x="49.5" y="22.5" rx="0.5" ry="6.5" width="1" height="13" fill="#ee6123">
    <animate attributeName="opacity" values="1;0" keyTimes="0;1" dur="1s" begin="-0.8333333333333334s" repeatCount="indefinite"></animate>
  </rect>
</g><g transform="rotate(60 50 50)">
  <rect x="49.5" y="22.5" rx="0.5" ry="6.5" width="1" height="13" fill="#ee6123">
    <animate attributeName="opacity" values="1;0" keyTimes="0;1" dur="1s" begin="-0.7916666666666666s" repeatCount="indefinite"></animate>
  </rect>
</g><g transform="rotate(75 50 50)">
  <rect x="49.5" y="22.5" rx="0.5" ry="6.5" width="1" height="13" fill="#ee6123">
    <animate attributeName="opacity" values="1;0" keyTimes="0;1" dur="1s" begin="-0.75s" repeatCount="indefinite"></animate>
  </rect>
</g><g transform="rotate(90 50 50)">
  <rect x="49.5" y="22.5" rx="0.5" ry="6.5" width="1" height="13" fill="#ee6123">
    <animate attributeName="opacity" values="1;0" keyTimes="0;1" dur="1s" begin="-0.7083333333333334s" repeatCount="indefinite"></animate>
  </rect>
</g><g transform="rotate(105 50 50)">
  <rect x="49.5" y="22.5" rx="0.5" ry="6.5" width="1" height="13" fill="#ee6123">
    <animate attributeName="opacity" values="1;0" keyTimes="0;1" dur="1s" begin="-0.6666666666666666s" repeatCount="indefinite"></animate>
  </rect>
</g><g transform="rotate(120 50 50)">
  <rect x="49.5" y="22.5" rx="0.5" ry="6.5" width="1" height="13" fill="#ee6123">
    <animate attributeName="opacity" values="1;0" keyTimes="0;1" dur="1s" begin="-0.625s" repeatCount="indefinite"></animate>
  </rect>
</g><g transform="rotate(135 50 50)">
  <rect x="49.5" y="22.5" rx="0.5" ry="6.5" width="1" height="13" fill="#ee6123">
    <animate attributeName="opacity" values="1;0" keyTimes="0;1" dur="1s" begin="-0.5833333333333334s" repeatCount="indefinite"></animate>
  </rect>
</g><g transform="rotate(150 50 50)">
  <rect x="49.5" y="22.5" rx="0.5" ry="6.5" width="1" height="13" fill="#ee6123">
    <animate attributeName="opacity" values="1;0" keyTimes="0;1" dur="1s" begin="-0.5416666666666666s" repeatCount="indefinite"></animate>
  </rect>
</g><g transform="rotate(165 50 50)">
  <rect x="49.5" y="22.5" rx="0.5" ry="6.5" width="1" height="13" fill="#ee6123">
    <animate attributeName="opacity" values="1;0" keyTimes="0;1" dur="1s" begin="-0.5s" repeatCount="indefinite"></animate>
  </rect>
</g><g transform="rotate(180 50 50)">
  <rect x="49.5" y="22.5" rx="0.5" ry="6.5" width="1" height="13" fill="#ee6123">
    <animate attributeName="opacity" values="1;0" keyTimes="0;1" dur="1s" begin="-0.4583333333333333s" repeatCount="indefinite"></animate>
  </rect>
</g><g transform="rotate(195 50 50)">
  <rect x="49.5" y="22.5" rx="0.5" ry="6.5" width="1" height="13" fill="#ee6123">
    <animate attributeName="opacity" values="1;0" keyTimes="0;1" dur="1s" begin="-0.4166666666666667s" repeatCount="indefinite"></animate>
  </rect>
</g><g transform="rotate(210 50 50)">
  <rect x="49.5" y="22.5" rx="0.5" ry="6.5" width="1" height="13" fill="#ee6123">
    <animate attributeName="opacity" values="1;0" keyTimes="0;1" dur="1s" begin="-0.375s" repeatCount="indefinite"></animate>
  </rect>
</g><g transform="rotate(225 50 50)">
  <rect x="49.5" y="22.5" rx="0.5" ry="6.5" width="1" height="13" fill="#ee6123">
    <animate attributeName="opacity" values="1;0" keyTimes="0;1" dur="1s" begin="-0.3333333333333333s" repeatCount="indefinite"></animate>
  </rect>
</g><g transform="rotate(240 50 50)">
  <rect x="49.5" y="22.5" rx="0.5" ry="6.5" width="1" height="13" fill="#ee6123">
    <animate attributeName="opacity" values="1;0" keyTimes="0;1" dur="1s" begin="-0.2916666666666667s" repeatCount="indefinite"></animate>
  </rect>
</g><g transform="rotate(255 50 50)">
  <rect x="49.5" y="22.5" rx="0.5" ry="6.5" width="1" height="13" fill="#ee6123">
    <animate attributeName="opacity" values="1;0" keyTimes="0;1" dur="1s" begin="-0.25s" repeatCount="indefinite"></animate>
  </rect>
</g><g transform="rotate(270 50 50)">
  <rect x="49.5" y="22.5" rx="0.5" ry="6.5" width="1" height="13" fill="#ee6123">
    <animate attributeName="opacity" values="1;0" keyTimes="0;1" dur="1s" begin="-0.20833333333333334s" repeatCount="indefinite"></animate>
  </rect>
</g><g transform="rotate(285 50 50)">
  <rect x="49.5" y="22.5" rx="0.5" ry="6.5" width="1" height="13" fill="#ee6123">
    <animate attributeName="opacity" values="1;0" keyTimes="0;1" dur="1s" begin="-0.16666666666666666s" repeatCount="indefinite"></animate>
  </rect>
</g><g transform="rotate(300 50 50)">
  <rect x="49.5" y="22.5" rx="0.5" ry="6.5" width="1" height="13" fill="#ee6123">
    <animate attributeName="opacity" values="1;0" keyTimes="0;1" dur="1s" begin="-0.125s" repeatCount="indefinite"></animate>
  </rect>
</g><g transform="rotate(315 50 50)">
  <rect x="49.5" y="22.5" rx="0.5" ry="6.5" width="1" height="13" fill="#ee6123">
    <animate attributeName="opacity" values="1;0" keyTimes="0;1" dur="1s" begin="-0.08333333333333333s" repeatCount="indefinite"></animate>
  </rect>
</g><g transform="rotate(330 50 50)">
  <rect x="49.5" y="22.5" rx="0.5" ry="6.5" width="1" height="13" fill="#ee6123">
    <animate attributeName="opacity" values="1;0" keyTimes="0;1" dur="1s" begin="-0.041666666666666664s" repeatCount="indefinite"></animate>
  </rect>
</g><g transform="rotate(345 50 50)">
  <rect x="49.5" y="22.5" rx="0.5" ry="6.5" width="1" height="13" fill="#ee6123">
    <animate attributeName="opacity" values="1;0" keyTimes="0;1" dur="1s" begin="0s" repeatCount="indefinite"></animate>
  </rect>
</g>
<!-- [ldio] generated by https://loading.io/ --></svg>